<?xml version="1.0" encoding="UTF-8" standalone="no"?>
<svg
   xmlns:dc="http://purl.org/dc/elements/1.1/"
   xmlns:cc="http://creativecommons.org/ns#"
   xmlns:rdf="http://www.w3.org/1999/02/22-rdf-syntax-ns#"
   xmlns:svg="http://www.w3.org/2000/svg"
   xmlns="http://www.w3.org/2000/svg"
   xmlns:sodipodi="http://sodipodi.sourceforge.net/DTD/sodipodi-0.dtd"
   xmlns:inkscape="http://www.inkscape.org/namespaces/inkscape"
   width="210mm"
   height="297mm"
   viewBox="0 0 210 297"
   version="1.1"
   id="svg8"
   inkscape:version="1.0.2-2 (e86c870879, 2021-01-15)"
   sodipodi:docname="presentator.svg">
  <defs
     id="defs2">
    <inkscape:path-effect
       effect="powerstroke"
       id="path-effect984"
       is_visible="true"
       lpeversion="1"
       offset_points="2.550801,2.9594545"
       sort_points="true"
       interpolator_type="CentripetalCatmullRom"
       interpolator_beta="0.75"
       start_linecap_type="round"
       linejoin_type="spiro"
       miter_limit="4"
       scale_width="1"
       end_linecap_type="round" />
    <inkscape:path-effect
       effect="simplify"
       id="path-effect982"
       is_visible="true"
       lpeversion="1"
       steps="1"
       threshold="0.0032025118"
       smooth_angles="0"
       helper_size="0"
       simplify_individual_paths="false"
       simplify_just_coalesce="false"
       step="1" />
    <inkscape:path-effect
       effect="powerstroke"
       id="path-effect953"
       is_visible="true"
       lpeversion="1"
       offset_points="2.550801,1.5903404"
       sort_points="true"
       interpolator_type="CentripetalCatmullRom"
       interpolator_beta="0.75"
       start_linecap_type="round"
       linejoin_type="spiro"
       miter_limit="4"
       scale_width="1"
       end_linecap_type="round" />
    <inkscape:path-effect
       effect="simplify"
       id="path-effect951"
       is_visible="true"
       lpeversion="1"
       steps="1"
       threshold="0.0032025118"
       smooth_angles="0"
       helper_size="0"
       simplify_individual_paths="false"
       simplify_just_coalesce="false"
       step="1" />
  </defs>
  <sodipodi:namedview
     id="base"
     pagecolor="#ffffff"
     bordercolor="#666666"
     borderopacity="1.0"
     inkscape:pageopacity="0.0"
     inkscape:pageshadow="2"
     inkscape:zoom="0.98994949"
     inkscape:cx="344.77293"
     inkscape:cy="477.37054"
     inkscape:document-units="mm"
     inkscape:current-layer="layer1"
     inkscape:document-rotation="0"
     showgrid="false"
     inkscape:window-width="1920"
     inkscape:window-height="1017"
     inkscape:window-x="1912"
     inkscape:window-y="-8"
     inkscape:window-maximized="1" />
  <metadata
     id="metadata5">
    <rdf:RDF>
      <cc:Work
         rdf:about="">
        <dc:format>image/svg+xml</dc:format>
        <dc:type
           rdf:resource="http://purl.org/dc/dcmitype/StillImage" />
        <dc:title></dc:title>
      </cc:Work>
    </rdf:RDF>
  </metadata>
  <g
     inkscape:label="Calque 1"
     inkscape:groupmode="layer"
     id="layer1">
    <ellipse
       style="fill:#f1d997;fill-rule:evenodd;stroke-width:0.264583;fill-opacity:1"
       id="path12"
       cx="85.422623"
       cy="100.54166"
       rx="49.136902"
       ry="58.208332" />
    <ellipse
       style="fill:#000000;fill-opacity:1;stroke-width:0.264583"
       id="path839"
       cx="71.815475"
       cy="88.446434"
       rx="10.583333"
       ry="9.8273811" />
    <ellipse
       style="fill:#000000;fill-opacity:1;stroke-width:0.264583"
       id="path839-2"
       cx="100.54166"
       cy="88.446434"
       rx="10.583333"
       ry="9.8273811" />
    <path
       d="m 113.96935,111.31912 c -1.20513,-0.36608 -1.97735,-0.70425 -3.88735,-1.46477 -1.11068,-0.44226 -2.681,-1.05118 -4.3488,-1.37626 -2.94478,-0.64022 -6.769551,-1.33356 -10.820161,-1.4725 -0.0078,-2.6e-4 -0.0156,-4.7e-4 -0.0234,-6.3e-4 -1.081732,-0.0212 -2.115541,0.0884 -3.145228,0.19169 -0.09882,0.01 -0.197363,0.0197 -0.295566,0.0293 -0.770518,0.0753 -1.618329,0.14776 -2.4332,0.11186 -0.0136,-6e-4 -0.02721,-0.001 -0.04083,-0.001 -1.709296,-0.0314 -4.539735,-0.15643 -6.966675,0.05 -5.614002,0.33872 -12.616935,0.72069 -19.144474,2.46921 -0.01291,0.003 -0.02577,0.007 -0.03859,0.0108 -0.817578,0.24124 -1.704182,0.47369 -2.637721,0.75874 -0.881602,0.26919 -1.834676,0.59644 -2.771513,1.04414 -0.115664,0.0553 -0.230574,0.11463 -0.329723,0.19589 -0.09915,0.0812 -0.179911,0.18227 -0.256826,0.28482 -0.06754,0.0901 -0.1463,0.20742 -0.21569,0.34901 -0.06649,0.13567 -0.149653,0.34457 -0.177096,0.60805 -0.01415,0.13582 -0.01416,0.29317 0.01526,0.46381 0.02973,0.17241 0.08778,0.34767 0.179543,0.51577 0.09147,0.16757 0.206272,0.30942 0.331934,0.42552 0.123821,0.1144 0.251598,0.19787 0.368454,0.25851 0.225459,0.11699 0.435074,0.16209 0.576807,0.18157 0.146698,0.0202 0.276808,0.0204 0.377053,0.0153 0.196291,-0.01 0.374253,-0.0452 0.512182,-0.08 0.143521,-0.0362 0.283745,-0.0822 0.414307,-0.13269 0.129803,-0.0502 0.263214,-0.10979 0.392774,-0.17808 0.124388,-0.0656 0.270527,-0.15234 0.413925,-0.26289 0.07234,-0.0558 0.1574,-0.12786 0.243265,-0.21735 0.08267,-0.0862 0.190739,-0.21392 0.285754,-0.38446 l -0.534492,0.56708 c 0.277743,-0.17703 0.627797,-0.31299 1.105805,-0.43708 0.457968,-0.11889 1.008154,-0.21514 1.621324,-0.35873 0.145736,-0.0351 0.305795,-0.0595 0.516729,-0.0821 0.248768,-0.0267 0.47072,-0.043 0.719485,-0.0697 0.267073,-0.0289 0.583045,-0.0716 0.913523,-0.15265 0.30448,-0.0747 0.631722,-0.18422 0.963147,-0.35351 0.716981,-0.28397 1.490834,-0.48512 2.338914,-0.65621 0.856664,-0.17283 1.772076,-0.3098 2.722428,-0.4811 2.025632,-0.33993 4.095576,-0.4352 6.248127,-0.44854 2.132336,-0.0132 4.321227,0.056 6.552336,0.0213 0.01438,-2.3e-4 0.02876,-6.4e-4 0.04314,-0.001 0.537272,-0.0229 1.02345,-0.0372 1.490562,-0.0153 0.461031,0.0216 0.876349,0.0776 1.260344,0.18436 0.04839,0.0135 0.09739,0.0246 0.146836,0.0334 1.155011,0.20597 2.290065,0.22398 3.330043,0.20987 1.089069,-0.0148 2.002347,-0.0606 2.955755,-0.0211 0.01475,6.1e-4 0.02951,0.001 0.04428,0.001 4.337252,0.0586 8.429167,0.0216 12.461857,0.71259 0.97451,0.19954 1.94566,0.47843 2.9486,0.78731 1.00477,0.30944 2.06667,0.65735 3.12797,0.95573 0.22262,0.0626 0.44877,0.12271 0.67999,0.1265 0.23122,0.004 0.46526,-0.0511 0.66234,-0.17205 0.19708,-0.12098 0.35191,-0.30486 0.45318,-0.51276 0.10127,-0.2079 0.15001,-0.43677 0.19495,-0.66361 0.0647,-0.32672 0.0509,-0.65878 -0.0403,-0.97511 -0.0891,-0.30901 -0.23851,-0.55724 -0.38929,-0.74665 -0.14918,-0.1874 -0.3113,-0.33202 -0.45185,-0.44061 -0.14237,-0.11 -0.28466,-0.19988 -0.40944,-0.27186 -0.24039,-0.13868 -0.49604,-0.25536 -0.65426,-0.32872 -0.0909,-0.0421 -0.1559,-0.0725 -0.21138,-0.10014 -0.0515,-0.0257 -0.0813,-0.0436 -0.0731,-0.0384 l -0.28008,-0.14027 c -0.58839,-0.22527 -1.17376,-0.33777 -1.64215,-0.4184 -0.52906,-0.0911 -0.87918,-0.13894 -1.25002,-0.23201 -0.021,-0.005 -0.0421,-0.0101 -0.0632,-0.0145 -3.98174,-0.82832 -7.84716,-1.72497 -11.909385,-1.92046 -1.988866,-0.1563 -3.972315,-0.38373 -5.950009,-0.56431 -2.070806,-0.18907 -4.107939,-0.32516 -6.164417,-0.29644 -5.088557,-0.0168 -10.082337,0.70628 -14.445164,1.48251 -1.061239,0.17041 -2.090819,0.34868 -3.117778,0.60221 -1.123591,0.27739 -2.181887,0.63064 -3.184226,1.11442 -0.209599,0.0986 -0.462818,0.17609 -0.777806,0.24827 -0.334468,0.0766 -0.718033,0.14171 -1.123328,0.22471 -0.442884,0.0907 -0.912144,0.20388 -1.380657,0.38651 -0.532924,0.20774 -1.032308,0.49311 -1.479337,0.8936 a 1.5903404,1.5903404 90 0 0 2.122384,2.36902 c 0.120654,-0.1081 0.277751,-0.20776 0.512165,-0.29914 0.221793,-0.0865 0.487958,-0.15706 0.863574,-0.23398 0.334591,-0.0685 0.73453,-0.13473 1.195638,-0.2404 0.417444,-0.0957 0.924363,-0.23523 1.43302,-0.47599 0.0039,-0.002 0.0078,-0.004 0.01173,-0.006 0.759254,-0.36701 1.601281,-0.65448 2.5692,-0.89344 0.896142,-0.22124 1.821257,-0.38309 2.872771,-0.55183 0.0089,-0.001 0.01782,-0.003 0.02671,-0.005 4.307427,-0.7667 9.084245,-1.45151 13.904592,-1.43563 0.0093,3e-5 0.0187,-2e-5 0.02805,-1.5e-4 1.897388,-0.0272 3.811417,0.0978 5.843666,0.28339 1.93772,0.17693 3.940412,0.40723 6.014933,0.56966 0.01626,0.001 0.03254,0.002 0.04883,0.003 3.749839,0.17777 7.318957,1.00146 11.407067,1.85231 0.51508,0.12687 1.05472,0.20502 1.45141,0.27331 0.38056,0.0655 0.67924,0.12845 0.93688,0.21552 0.0646,0.0357 0.12583,0.0671 0.17998,0.0941 0.1016,0.0506 0.20639,0.0992 0.29159,0.1387 0.1907,0.0884 0.30906,0.14415 0.40282,0.19823 0.0388,0.0224 0.0593,0.0377 0.0541,0.0337 -0.005,-0.004 -0.0377,-0.0272 -0.092,-0.0954 -0.0533,-0.067 -0.12977,-0.18447 -0.17838,-0.353 -0.0508,-0.17631 -0.0564,-0.3586 -0.0236,-0.52433 0.0449,-0.22684 0.0937,-0.45571 0.19495,-0.66361 0.10127,-0.2079 0.2561,-0.39177 0.45318,-0.51276 0.19708,-0.12098 0.43112,-0.17583 0.66234,-0.17205 0.23122,0.004 0.45737,0.0639 0.67999,0.1265 -1.0124,-0.28464 -1.97225,-0.60082 -3.05268,-0.93356 -1.03785,-0.31963 -2.13569,-0.63753 -3.27406,-0.86913 -0.0157,-0.003 -0.0315,-0.006 -0.0474,-0.009 -4.3409,-0.74696 -8.740315,-0.7055 -12.960612,-0.76219 -1.062122,-0.0426 -2.169262,0.007 -3.107784,0.0196 -0.963744,0.0131 -1.833157,-0.008 -2.66194,-0.14917 -0.648525,-0.17246 -1.284519,-0.24726 -1.883354,-0.2753 -0.611741,-0.0286 -1.211941,-0.009 -1.753264,0.0138 -2.123932,0.0324 -4.29649,-0.0356 -6.50124,-0.0219 -2.225121,0.0138 -4.4922,0.1118 -6.765055,0.49406 -0.0062,0.001 -0.01244,0.002 -0.01865,0.003 -0.888707,0.16036 -1.830218,0.30021 -2.796156,0.49508 -0.974415,0.19658 -1.983538,0.45228 -2.9752,0.8546 -0.0554,0.0225 -0.109485,0.0481 -0.162001,0.0766 -0.07333,0.0399 -0.165788,0.0759 -0.293461,0.10724 -0.133326,0.0327 -0.291252,0.0572 -0.498536,0.0796 -0.229343,0.0249 -0.486713,0.0445 -0.716055,0.0694 -0.270011,0.029 -0.584099,0.071 -0.912439,0.15008 -0.478467,0.11201 -1.0586,0.21192 -1.685625,0.37469 -0.642201,0.16672 -1.343405,0.40473 -2.016167,0.83354 -0.111171,0.0709 -0.221052,0.14592 -0.311475,0.24185 -0.09042,0.0959 -0.158858,0.21006 -0.223021,0.32523 0.07413,-0.13306 0.15236,-0.22236 0.197722,-0.26964 0.04843,-0.0505 0.08853,-0.0831 0.109892,-0.0996 0.04815,-0.0371 0.05368,-0.0364 0.04497,-0.0318 -0.01104,0.006 -0.03109,0.0153 -0.05608,0.0249 -0.02307,0.009 -0.04561,0.0155 -0.04678,0.0157 -0.0012,3e-4 0.0154,-0.008 0.106516,-0.0127 0.04088,-0.002 0.116923,-0.003 0.216149,0.0103 0.09406,0.0129 0.262687,0.0464 0.455135,0.14629 0.100297,0.052 0.213526,0.12553 0.324959,0.22848 0.113268,0.10465 0.217846,0.23359 0.30143,0.3867 0.08387,0.15365 0.136381,0.31292 0.163078,0.46775 0.02639,0.15304 0.02586,0.29119 0.01388,0.40616 -0.02309,0.22164 -0.09109,0.38208 -0.130339,0.46218 -0.04203,0.0858 -0.08127,0.14017 -0.09589,0.15966 -0.07691,0.10255 -0.157676,0.20357 -0.256824,0.28483 -0.09915,0.0812 -0.214059,0.1406 -0.329722,0.19588 0.731983,-0.34981 1.51508,-0.62343 2.32891,-0.87193 0.844965,-0.258 1.718457,-0.48776 2.589451,-0.74435 6.161683,-1.6476 12.828129,-2.01963 18.513906,-2.36277 0.01345,-8.1e-4 0.02689,-0.002 0.04031,-0.003 2.206814,-0.18956 4.774188,-0.0756 6.636782,-0.041 1.057288,0.0447 2.098925,-0.0502 2.861513,-0.12476 0.102214,-0.01 0.203891,-0.0201 0.30383,-0.0302 1.067669,-0.10715 1.901814,-0.1924 2.753985,-0.17662 3.778136,0.1307 7.393119,0.78156 10.258399,1.40502 0.0119,0.003 0.0239,0.005 0.0359,0.007 1.34961,0.26125 2.67858,0.76759 3.79508,1.21216 1.84154,0.73327 2.77254,1.13786 4.13954,1.5531 a 1.5903404,1.5903404 90 0 0 0.92446,-3.04336 z"
       id="path-1"
       style="fill:#d4aa00;fill-opacity:1;fill-rule:nonzero;stroke:none;stroke-width:0.423135px;stroke-linecap:butt;stroke-linejoin:miter;stroke-opacity:1"
       inkscape:original-d="m 113.50712,112.8408 c -2.04339,-0.61201 -3.80246,-1.50902 -5.84722,-2.19653 -2.89917,-0.9748 -10.24914,-2.17037 -13.671394,-2.04288 -1.111049,0.0414 -2.188138,0.22703 -3.295757,0.28866 -2.314709,0.12878 -4.698008,-0.12594 -7.035792,-0.001 -6.485199,0.3472 -13.74848,0.80063 -19.642799,2.30642 -1.233177,0.31502 -6.629927,1.81208 -6.033033,2.13886 0.511769,0.28017 1.140642,-0.49616 1.750558,-0.71601 0.959568,-0.34589 2.062733,-0.57703 3.160516,-0.7813 0.452629,-0.0842 0.979096,-0.0397 1.413466,-0.14708 0.640825,-0.15842 1.124001,-0.45744 1.747051,-0.63422 1.445294,-0.41007 3.457164,-0.76507 5.046308,-1.00468 3.576795,-0.53929 7.445141,-0.40362 11.11642,-0.36051 1.041564,0.0123 2.111038,-0.0571 3.128965,-0.0451 0.623549,0.007 1.712389,0.30465 2.1738,0.35289 1.478176,0.1545 3.175998,0.0373 4.68819,0.055 4.251771,0.0499 8.856951,0.02 12.949621,0.64311 2.35706,0.35883 6.68251,1.93858 6.79889,1.88034 0.57363,-0.28709 -1.60368,-1.35037 -1.97195,-1.41445 -4.746,-0.82582 -8.37125,-1.95673 -13.50461,-2.28645 -2.33549,-0.15001 -4.684701,-0.45353 -7.00774,-0.65517 -6.250564,-0.54254 -11.921093,-0.097 -17.864204,0.936 -1.930034,0.33546 -4.075657,0.61196 -5.834685,1.1591 -0.789825,0.24567 -1.469662,0.60988 -2.226382,0.87411 -1.434099,0.50077 -3.043124,0.43002 -3.966424,1.34472"
       inkscape:path-effect="#path-effect951;#path-effect953" />
    <path
       d="m 117.23949,52.517152 c -1.20688,-1.102169 -1.90348,-2.029072 -3.76298,-4.313829 -0.60381,-0.741891 -1.36068,-1.650063 -2.20743,-2.515303 -0.76052,-0.777137 -1.68161,-1.612769 -2.78805,-2.36426 -2.59854,-1.79376 -6.23116,-3.863833 -10.580872,-4.963502 -0.846459,-0.214473 -1.846365,-0.380675 -2.922557,-0.374442 -0.104773,6.06e-4 -0.210628,0.0029 -0.317471,0.0069 -0.838863,0.03162 -1.845088,0.177228 -2.896362,0.587937 l 0.01394,-0.0054 c -0.886622,0.341231 -1.926605,0.566177 -3.014836,0.478415 -0.02027,-0.0016 -0.04055,-0.0031 -0.06084,-0.0043 -0.867423,-0.05199 -1.887696,-0.164459 -3.077976,-0.206561 -1.055069,-0.03732 -2.32595,-0.01457 -3.66334,0.282462 -3.089642,0.5051 -6.480778,1.14614 -9.805335,2.147299 -3.211795,0.967201 -6.517236,2.313882 -9.614477,4.335697 -0.0073,0.0048 -0.01454,0.0095 -0.02177,0.01435 -2.650969,1.763969 -5.042402,3.893452 -7.319443,6.220387 -0.08057,0.08234 -0.156271,0.169313 -0.226703,0.260475 -0.04702,0.06085 -0.117795,0.140509 -0.308945,0.350006 -0.152819,0.167486 -0.407475,0.444997 -0.645836,0.75643 -0.238806,0.312016 -0.538819,0.755249 -0.761252,1.31415 -0.229058,0.575548 -0.376333,1.276077 -0.299897,2.063695 0.0219,0.225676 0.04553,0.451998 0.09902,0.672337 0.05348,0.220338 0.137037,0.434034 0.255384,0.627434 0.118346,0.193399 0.270599,0.365057 0.442454,0.51296 0.171855,0.147902 0.362624,0.27195 0.553605,0.394162 0.218046,0.139532 0.479086,0.275197 0.782644,0.378517 0.306223,0.104225 0.648039,0.172747 1.016232,0.181097 0.369025,0.0084 0.727302,-0.04464 1.06335,-0.148882 0.331409,-0.102806 0.615626,-0.247343 0.852071,-0.401845 0.455209,-0.297453 0.760653,-0.649408 0.947945,-0.900117 0.191976,-0.256981 0.33243,-0.506365 0.429164,-0.693877 0.172504,-0.334387 0.335422,-0.739591 0.385785,-0.857808 0.03577,-0.08397 0.06026,-0.13477 0.05508,-0.124569 -0.0052,0.01015 -0.03028,0.0813 -0.179882,0.269266 l 0.279886,-0.420984 c 0.05099,-0.09307 0.124351,-0.199335 0.233225,-0.321769 0.109436,-0.123065 0.251336,-0.25865 0.43662,-0.410446 0.391327,-0.320599 0.84535,-0.61277 1.476702,-1.016603 0.114822,-0.07344 0.224443,-0.154739 0.32806,-0.243292 -0.08154,0.06969 -0.153582,0.113605 -0.199082,0.137813 -0.04414,0.02348 -0.05775,0.02618 -0.03298,0.01736 0.04929,-0.01753 0.247762,-0.07009 0.584786,-0.165582 0.303692,-0.08604 0.841902,-0.246548 1.393056,-0.562326 0.287414,-0.16467 0.587889,-0.375929 0.876937,-0.649517 0.253625,-0.240062 0.482413,-0.512998 0.680627,-0.818779 0.500449,-0.683624 1.103293,-1.254276 1.79521,-1.683736 0.0153,-0.0095 0.03052,-0.01914 0.04565,-0.02891 1.186981,-0.7671 2.365047,-1.443844 3.554782,-1.955269 1.176864,-0.505891 2.329972,-0.834525 3.478798,-0.93821 0.0331,-0.003 0.06614,-0.0065 0.09912,-0.01063 1.16047,-0.144281 2.374262,-0.143869 3.745928,-0.09881 1.288452,0.04232 2.849846,0.132598 4.34387,0.109967 0.433666,-0.0039 0.841766,-0.04687 1.121105,-0.07706 0.327622,-0.03541 0.502512,-0.05567 0.673345,-0.06391 0.143396,-0.0069 0.195921,0.0044 0.158494,-0.0024 -0.04686,-0.0085 -0.153782,-0.03761 -0.271928,-0.112323 -0.02326,-0.01471 -0.04632,-0.02975 -0.06916,-0.0451 0.476331,0.320184 1.101026,0.713007 1.828406,1.018886 0.724348,0.304604 1.596624,0.54355 2.59063,0.540172 0.912635,0.02921 1.81814,-0.01362 2.549743,-0.04045 0.801972,-0.02941 1.453098,-0.04312 2.070212,0.0043 0.04798,0.0037 0.09605,0.0062 0.14416,0.0076 2.198014,0.06144 4.240532,0.115501 6.224196,0.36884 1.932242,0.24677 3.687072,0.670771 5.275612,1.406402 0.8597,0.496317 1.68416,1.14043 2.54903,1.912548 0.89516,0.799147 1.80869,1.717328 2.80317,2.65427 0.041,0.03859 0.083,0.076 0.1261,0.11219 -0.0454,-0.0381 -0.0597,-0.05256 -0.0618,-0.05459 -0.002,-0.002 0.009,0.0088 0.0276,0.02752 0.0371,0.03751 0.10298,0.106035 0.18475,0.190067 0.0787,0.08088 0.18436,0.188393 0.29981,0.298206 0.1116,0.106153 0.26852,0.249292 0.4532,0.390923 0.0947,0.07263 0.21499,0.15902 0.35662,0.245624 0.13778,0.08424 0.33255,0.191417 0.57436,0.284233 0.23551,0.09039 0.59698,0.198789 1.0461,0.213116 0.23138,0.0074 0.49522,-0.01029 0.77515,-0.07288 0.28407,-0.06351 0.57071,-0.169922 0.84606,-0.326154 0.27548,-0.156301 0.51331,-0.34751 0.71278,-0.557537 0.19763,-0.208091 0.34727,-0.423583 0.45995,-0.625024 0.21922,-0.391892 0.31517,-0.759772 0.36141,-1.016129 0.0476,-0.263998 0.0584,-0.499861 0.0577,-0.682348 -7.6e-4,-0.187507 -0.014,-0.362747 -0.0314,-0.517503 -0.0103,-0.09143 -0.0248,-0.182345 -0.0436,-0.272426 -0.22405,-1.076096 -0.63689,-2.02175 -1.08427,-2.824997 -0.45114,-0.810029 -0.97021,-1.532125 -1.43075,-2.134941 -0.12717,-0.166459 -0.2717,-0.318981 -0.43107,-0.454927 -0.58762,-0.501245 -1.21014,-0.840241 -1.59819,-1.047957 -0.42854,-0.229388 -0.71454,-0.382969 -0.84653,-0.473085 -0.0492,-0.03357 -0.0994,-0.06565 -0.15045,-0.09619 -1.82745,-1.0922 -3.71519,-2.399971 -5.77789,-3.600504 -2.10828,-1.227065 -4.42541,-2.350369 -7.052898,-2.938212 -0.0387,-0.0087 -0.07758,-0.01654 -0.116602,-0.02364 -1.839257,-0.334497 -3.625542,-0.944464 -5.701258,-1.578924 -2.067339,-0.631899 -4.333641,-1.255512 -6.785924,-1.390538 -3.071479,-0.235685 -6.024339,0.169325 -8.74535,0.911828 -2.832748,0.772994 -5.483721,1.930732 -7.856488,3.200128 -1.203005,0.61448 -2.694317,1.302162 -4.064421,2.130327 -0.73749,0.445779 -1.472086,0.949306 -2.169344,1.540496 -0.716692,0.607668 -1.38608,1.301552 -1.973281,2.107986 -0.41906,0.561818 -0.733866,0.962689 -1.057181,1.299207 -0.337085,0.35085 -0.610366,0.550756 -0.848042,0.67337 -1.028958,0.532431 -1.877915,1.229372 -2.542044,2.012787 -0.780139,0.920262 -1.284403,1.932594 -1.573166,2.92915 a 2.9594545,2.9594545 90 0 0 5.685054,1.647312 c 0.07363,-0.254118 0.200254,-0.509863 0.403004,-0.74903 0.173877,-0.205108 0.416403,-0.412167 0.744053,-0.58171 0.951008,-0.490609 1.733276,-1.137889 2.399332,-1.831144 0.602504,-0.627108 1.107925,-1.29023 1.545038,-1.876615 0.0077,-0.01035 0.01536,-0.02074 0.02294,-0.03119 0.276559,-0.381311 0.613232,-0.738873 1.022108,-1.08555 0.399462,-0.338696 0.862799,-0.662881 1.403361,-0.989626 1.142069,-0.690328 2.204316,-1.161992 3.722629,-1.938799 0.01664,-0.0085 0.0332,-0.01719 0.04968,-0.02602 2.094248,-1.122043 4.335137,-2.090657 6.644936,-2.72095 2.214778,-0.604364 4.487788,-0.896516 6.761629,-0.718282 0.02488,0.002 0.04979,0.0036 0.07472,0.0049 1.701091,0.09011 3.398003,0.528403 5.406611,1.142351 1.799924,0.550161 4.048198,1.312592 6.308717,1.730254 1.771585,0.404382 3.476918,1.195966 5.314818,2.265659 1.7755,1.033381 3.61695,2.305636 5.65122,3.525207 0.49884,0.330651 1.0338,0.600744 1.30775,0.747385 0.16505,0.08834 0.28114,0.154335 0.3645,0.205029 0.28166,0.383692 0.52236,0.743535 0.7178,1.094454 0.2443,0.438623 0.39077,0.816065 0.46061,1.151483 l -0.0436,-0.272426 c -3.9e-4,-0.0035 -0.005,-0.04686 -0.006,-0.120266 -2.8e-4,-0.06857 0.003,-0.208239 0.0363,-0.392147 0.0318,-0.176388 0.10631,-0.480363 0.29785,-0.822779 0.0989,-0.176734 0.23313,-0.371118 0.41394,-0.561496 0.18266,-0.192327 0.40223,-0.369226 0.6581,-0.514403 0.25576,-0.145117 0.52147,-0.243592 0.78336,-0.302146 0.25777,-0.05763 0.4982,-0.07332 0.70505,-0.06672 0.40008,0.01276 0.70798,0.108553 0.88618,0.176953 0.1846,0.07085 0.31845,0.146705 0.3924,0.191923 0.0779,0.04763 0.13157,0.08737 0.15761,0.107339 0.0476,0.03651 0.0593,0.05063 0.0241,0.01716 -0.031,-0.02947 -0.0731,-0.07153 -0.13709,-0.137327 -0.0462,-0.04752 -0.14708,-0.152301 -0.21982,-0.22581 -0.0424,-0.04285 -0.094,-0.0942 -0.14997,-0.147603 -0.0356,-0.03395 -0.0802,-0.07565 -0.13166,-0.121255 -0.88621,-0.836823 -1.82173,-1.778857 -2.87863,-2.7224 -1.05619,-0.942912 -2.2653,-1.910563 -3.67532,-2.705198 -0.0613,-0.03453 -0.12373,-0.06686 -0.1873,-0.09693 -2.3528,-1.113179 -4.79323,-1.671172 -7.15402,-1.972674 -2.303868,-0.294232 -4.62674,-0.353379 -6.740654,-0.412318 -0.958217,-0.06864 -1.880121,-0.04087 -2.664634,-0.01211 -0.849866,0.03116 -1.521865,0.06206 -2.189783,0.03793 -0.05336,-0.0019 -0.106752,-0.0024 -0.160132,-0.0015 -0.03115,5.6e-4 -0.09362,6.44e-4 -0.279155,-0.07738 -0.202097,-0.08499 -0.455197,-0.229265 -0.820847,-0.475051 -0.02284,-0.01535 -0.0459,-0.03039 -0.06916,-0.0451 -0.615928,-0.389523 -1.246884,-0.602184 -1.833893,-0.708811 -0.570397,-0.103609 -1.092502,-0.105765 -1.501354,-0.08605 -0.392208,0.01891 -0.786969,0.06566 -1.024334,0.09131 -0.283721,0.03066 -0.431272,0.04228 -0.540217,0.04304 -0.0085,5.8e-5 -0.01697,1.54e-4 -0.02546,2.86e-4 -1.306992,0.0203 -2.562571,-0.05783 -4.068935,-0.107316 -1.432417,-0.04705 -3.004516,-0.06207 -4.62176,0.13484 -1.89386,0.177417 -3.644924,0.707682 -5.233925,1.390735 -1.600208,0.687873 -3.07848,1.549515 -4.40852,2.408077 -1.418725,0.88529 -2.589486,2.031206 -3.510231,3.318368 -0.04596,0.06424 -0.08933,0.130308 -0.129997,0.198024 0.06257,-0.104171 0.144189,-0.206822 0.241207,-0.298652 0.09549,-0.09039 0.185131,-0.150702 0.249389,-0.187518 0.103134,-0.05909 0.141987,-0.0551 -0.0641,0.0033 -0.09743,0.0276 -0.582884,0.15138 -0.954809,0.283666 -0.224534,0.07986 -0.48691,0.186708 -0.763622,0.33393 -0.216558,0.115218 -0.442274,0.255335 -0.667325,0.427234 -0.548918,0.350841 -1.251985,0.803158 -1.909289,1.341662 -0.370215,0.303304 -0.749619,0.652073 -1.108636,1.055803 -0.325572,0.36612 -0.63547,0.778664 -0.906973,1.244545 -0.12876,0.192094 -0.221372,0.365403 -0.281395,0.483683 -0.09298,0.183222 -0.170087,0.360769 -0.222245,0.4832 -0.113855,0.267254 -0.192045,0.447366 -0.200627,0.464001 -0.0043,0.0084 0.0099,-0.02875 0.08919,-0.134863 0.06582,-0.08811 0.241554,-0.306781 0.556194,-0.51238 0.165886,-0.108396 0.376838,-0.217293 0.63197,-0.296437 0.259544,-0.08051 0.538309,-0.121842 0.824502,-0.115352 0.28511,0.0065 0.540525,0.05947 0.756697,0.133044 0.21327,0.07259 0.380379,0.162312 0.500559,0.239218 0.19098,0.122211 0.381748,0.246258 0.553603,0.394161 0.171854,0.147902 0.324106,0.31956 0.442452,0.51296 0.118346,0.193399 0.201901,0.407094 0.255382,0.627432 0.05348,0.220338 0.07711,0.446661 0.09902,0.672336 0.02903,0.299175 -0.03217,0.54649 -0.09195,0.696691 -0.0558,0.140198 -0.083,0.153513 -0.0379,0.0946 0.05925,-0.07742 0.143582,-0.173235 0.317977,-0.364368 0.117531,-0.128812 0.30736,-0.334224 0.496075,-0.564647 1.993839,-2.03776 4.06275,-3.860752 6.254681,-5.320748 2.490821,-1.624063 5.235343,-2.762368 8.074928,-3.617482 2.983644,-0.898495 6.107112,-1.493354 9.140633,-1.987647 0.06485,-0.01057 0.129343,-0.02329 0.193351,-0.03815 0.652575,-0.151507 1.376197,-0.186058 2.218746,-0.156255 0.886841,0.03137 1.867797,0.13497 2.904202,0.197914 2.170953,0.169132 4.102628,-0.286396 5.584657,-0.85678 0.0047,-0.0018 0.0093,-0.0036 0.01394,-0.0054 0.299291,-0.116927 0.625476,-0.173527 0.965443,-0.186341 0.04248,-0.0016 0.08542,-0.0025 0.12882,-0.0028 0.456323,-0.0026 0.944659,0.06911 1.436017,0.193614 3.434691,0.86834 6.417522,2.540253 8.679442,4.102652 0.007,0.0049 0.0142,0.0097 0.0213,0.01458 0.68941,0.467377 1.31085,1.02042 1.89017,1.612397 0.64963,0.66382 1.2672,1.399236 1.84704,2.111676 1.74207,2.14048 2.75544,3.480833 4.36222,4.948211 a 2.9594545,2.9594545 90 0 0 3.99142,-4.370598 z"
       id="path-1-6"
       style="fill:#d4aa00;fill-opacity:1;fill-rule:nonzero;stroke:none;stroke-width:0.787405px;stroke-linecap:butt;stroke-linejoin:miter;stroke-opacity:1"
       inkscape:original-d="m 115.24378,54.702451 c -2.1838,-1.983067 -4.06373,-4.889642 -6.24899,-7.117387 -3.09836,-3.158624 -10.953325,-7.032613 -14.610717,-6.619519 -1.187385,0.134114 -2.338493,0.735671 -3.522206,0.935343 -2.473757,0.417299 -5.020808,-0.408064 -7.519208,-0.003 -6.930797,1.125036 -14.693128,2.594285 -20.99244,7.473452 -1.317905,1.020791 -7.08546,5.871677 -6.447554,6.93055 0.546932,0.907836 1.219016,-1.607727 1.870837,-2.320096 1.0255,-1.120771 2.204461,-1.869734 3.377672,-2.531624 0.483728,-0.272918 1.046367,-0.128667 1.510582,-0.476598 0.684856,-0.513322 1.201231,-1.482224 1.86709,-2.055044 1.544596,-1.328757 3.6947,-2.479049 5.393034,-3.25544 3.822551,-1.747475 7.956687,-1.307856 11.880218,-1.168167 1.113122,0.03968 2.256081,-0.184863 3.34395,-0.146127 0.666392,0.02371 1.830047,0.987174 2.32315,1.143468 1.579739,0.500654 3.394218,0.120841 5.010314,0.178375 4.543921,0.16178 9.465508,0.06497 13.839358,2.08386 2.51901,1.162711 7.14168,6.281547 7.26604,6.092836 0.61305,-0.930244 -1.71386,-4.375596 -2.10745,-4.583245 -5.07208,-2.675874 -8.94641,-6.340349 -14.432469,-7.408736 -2.495962,-0.486082 -5.006591,-1.469596 -7.489238,-2.122953 -6.680029,-1.75798 -12.740175,-0.314185 -19.091629,3.032912 -2.062645,1.086985 -4.355692,1.982937 -6.23558,3.755827 -0.844094,0.796051 -1.570641,1.976172 -2.379353,2.832367 -1.532636,1.622626 -3.252213,1.393382 -4.238953,4.357284"
       inkscape:path-effect="#path-effect982;#path-effect984" />
  </g>
</svg>
