<?xml version="1.0" encoding="UTF-8" standalone="no"?>
<svg
   xmlns:dc="http://purl.org/dc/elements/1.1/"
   xmlns:cc="http://creativecommons.org/ns#"
   xmlns:rdf="http://www.w3.org/1999/02/22-rdf-syntax-ns#"
   xmlns:svg="http://www.w3.org/2000/svg"
   xmlns="http://www.w3.org/2000/svg"
   xmlns:sodipodi="http://sodipodi.sourceforge.net/DTD/sodipodi-0.dtd"
   xmlns:inkscape="http://www.inkscape.org/namespaces/inkscape"
   width="210mm"
   height="297mm"
   viewBox="0 0 210 297"
   version="1.1"
   id="svg8"
   inkscape:version="1.0.2-2 (e86c870879, 2021-01-15)"
   sodipodi:docname="weatherman.svg">
  <defs
     id="defs2">
    <inkscape:path-effect
       effect="powerstroke"
       id="path-effect984"
       is_visible="true"
       lpeversion="1"
       offset_points="2.550801,4.7918132"
       sort_points="true"
       interpolator_type="CentripetalCatmullRom"
       interpolator_beta="0.75"
       start_linecap_type="round"
       linejoin_type="spiro"
       miter_limit="4"
       scale_width="1"
       end_linecap_type="round" />
    <inkscape:path-effect
       effect="simplify"
       id="path-effect982"
       is_visible="true"
       lpeversion="1"
       steps="1"
       threshold="0.0032025118"
       smooth_angles="0"
       helper_size="0"
       simplify_individual_paths="false"
       simplify_just_coalesce="false"
       step="1" />
    <inkscape:path-effect
       effect="powerstroke"
       id="path-effect953"
       is_visible="true"
       lpeversion="1"
       offset_points="2.550801,3.3606714"
       sort_points="true"
       interpolator_type="CentripetalCatmullRom"
       interpolator_beta="0.75"
       start_linecap_type="round"
       linejoin_type="spiro"
       miter_limit="4"
       scale_width="1"
       end_linecap_type="round" />
    <inkscape:path-effect
       effect="simplify"
       id="path-effect951"
       is_visible="true"
       lpeversion="1"
       steps="1"
       threshold="0.0032025118"
       smooth_angles="0"
       helper_size="0"
       simplify_individual_paths="false"
       simplify_just_coalesce="false"
       step="1" />
  </defs>
  <sodipodi:namedview
     id="base"
     pagecolor="#ffffff"
     bordercolor="#666666"
     borderopacity="1.0"
     inkscape:pageopacity="0.0"
     inkscape:pageshadow="2"
     inkscape:zoom="0.98994949"
     inkscape:cx="344.77293"
     inkscape:cy="477.37054"
     inkscape:document-units="mm"
     inkscape:current-layer="layer1"
     inkscape:document-rotation="0"
     showgrid="false"
     inkscape:window-width="1920"
     inkscape:window-height="1017"
     inkscape:window-x="1912"
     inkscape:window-y="-8"
     inkscape:window-maximized="1" />
  <metadata
     id="metadata5">
    <rdf:RDF>
      <cc:Work
         rdf:about="">
        <dc:format>image/svg+xml</dc:format>
        <dc:type
           rdf:resource="http://purl.org/dc/dcmitype/StillImage" />
        <dc:title></dc:title>
      </cc:Work>
    </rdf:RDF>
  </metadata>
  <g
     inkscape:label="Calque 1"
     inkscape:groupmode="layer"
     id="layer1">
    <ellipse
       style="fill:#f1d997;fill-rule:evenodd;stroke-width:0.264583;fill-opacity:1"
       id="path12"
       cx="85.422623"
       cy="100.54166"
       rx="49.136902"
       ry="58.208332" />
    <ellipse
       style="fill:#000000;fill-opacity:1;stroke-width:0.264583"
       id="path839"
       cx="71.815475"
       cy="88.446434"
       rx="10.583333"
       ry="9.8273811" />
    <ellipse
       style="fill:#000000;fill-opacity:1;stroke-width:0.264583"
       id="path839-2"
       cx="100.54166"
       cy="88.446434"
       rx="10.583333"
       ry="9.8273811" />
    <path
       d="m 121.29311,122.75085 c -1.14294,-1.13912 -1.95658,-2.23046 -3.68112,-4.57284 -1.00742,-1.36834 -2.61481,-3.56849 -4.63464,-5.35511 -0.0208,-0.0184 -0.0418,-0.0365 -0.0631,-0.0544 -2.83979,-2.38913 -6.68979,-4.87153 -11.49038,-6.50537 -0.0129,-0.004 -0.0258,-0.009 -0.0387,-0.0129 -0.94789,-0.30982 -2.213981,-0.66282 -3.592888,-0.77294 -0.13651,-0.0109 -0.275349,-0.0195 -0.416293,-0.0256 -0.520766,-0.0222 -1.100165,-0.01 -1.715603,0.0703 -0.697503,0.0907 -1.458251,0.27032 -2.239444,0.59637 -0.520726,0.20982 -1.052344,0.38661 -1.574614,0.49565 -0.466939,0.0975 -0.912125,0.13795 -1.335376,0.10811 -0.03479,-0.002 -0.06961,-0.004 -0.104457,-0.006 -0.889261,-0.0349 -1.986682,-0.17025 -3.318461,-0.24237 -1.169805,-0.0633 -2.651885,-0.0734 -4.219129,0.29355 -3.292572,0.58236 -6.902612,1.3226 -10.442198,2.45176 -3.417137,1.09009 -6.931992,2.59121 -10.217372,4.80966 -3.222464,2.18351 -5.970245,4.88776 -8.573019,7.74167 -0.05144,0.0564 -0.100938,0.11454 -0.148416,0.17431 -0.231199,0.29107 -0.637625,0.73146 -1.10962,1.3827 -0.22747,0.31386 -0.478881,0.69637 -0.703953,1.14127 -0.224175,0.44314 -0.42931,0.96329 -0.558778,1.55114 -0.05819,0.2642 -0.108627,0.53242 -0.102231,0.80287 0.0064,0.27046 0.06946,0.536 0.140075,0.79715 0.05494,0.20321 0.130839,0.43762 0.239218,0.68382 0.106204,0.24126 0.265283,0.54353 0.50533,0.85155 0.241728,0.31018 0.598728,0.66804 1.103288,0.94912 0.252768,0.14081 0.531222,0.25573 0.831643,0.3343 0.300192,0.0785 0.601892,0.11536 0.897096,0.11544 0.589414,1.6e-4 1.085414,-0.14508 1.456044,-0.30858 0.36379,-0.16049 0.645823,-0.35513 0.845643,-0.51513 0.383381,-0.30697 0.65035,-0.63731 0.808918,-0.85217 0.171743,-0.23272 0.311758,-0.46164 0.419967,-0.65331 0.110287,-0.19535 0.206674,-0.38614 0.287789,-0.55753 0.08123,-0.17161 0.153344,-0.3369 0.214626,-0.48633 0.05443,-0.13273 0.106379,-0.26771 0.151544,-0.3963 0.04903,-0.13128 0.122776,-0.27333 0.235132,-0.43239 0.117504,-0.16634 0.277394,-0.35141 0.494442,-0.5585 0.451907,-0.43118 1.024465,-0.84343 1.791878,-1.36219 0.119683,-0.0809 0.234034,-0.16945 0.342322,-0.26507 -0.104132,0.0919 -0.197458,0.15066 -0.258258,0.18398 -0.05937,0.0325 -0.08225,0.0388 -0.05996,0.0306 0.04433,-0.0164 0.263434,-0.0775 0.645114,-0.19598 0.343339,-0.10659 0.960769,-0.31036 1.58606,-0.71319 0.325651,-0.20979 0.659128,-0.476 0.97136,-0.815 0.251709,-0.27329 0.472661,-0.57556 0.659961,-0.90445 0.544522,-0.79429 1.130454,-1.42091 1.763618,-1.85533 0.01657,-0.0114 0.03304,-0.0229 0.0494,-0.0346 1.253429,-0.89347 2.484386,-1.68924 3.731891,-2.30316 1.230659,-0.60564 2.427928,-1.00921 3.62257,-1.16336 0.02925,-0.004 0.05845,-0.008 0.0876,-0.0125 1.252821,-0.19531 2.578338,-0.21421 4.094831,-0.16795 1.387014,0.0423 3.206805,0.15661 4.847752,0.14638 0.524415,-0.003 1.027397,-0.0603 1.352372,-0.0975 0.383889,-0.0439 0.579294,-0.0665 0.758544,-0.0734 0.160409,-0.006 0.157779,0.01 0.07021,-0.0113 -0.115744,-0.0276 -0.284139,-0.0956 -0.43849,-0.22031 0.654224,0.52818 1.419242,1.00781 2.290283,1.3542 0.857771,0.34111 1.81721,0.55188 2.848383,0.54481 0.95035,0.0161 1.910461,-0.0342 2.666768,-0.0627 0.826457,-0.0312 1.499507,-0.042 2.130376,0.009 0.05725,0.005 0.114617,0.008 0.172032,0.009 2.341536,0.0688 4.516059,0.13544 6.615409,0.42122 2.04494,0.27837 3.90468,0.75501 5.56516,1.56971 0.74114,0.41645 1.464,0.98743 2.24825,1.71862 0.85774,0.79972 1.575,1.57809 2.55616,2.56204 0.0116,0.0116 0.0232,0.0231 0.035,0.0346 0.31723,0.30896 0.57102,0.60447 1.03719,1.10963 0.41311,0.44766 0.95993,1.01968 1.6288,1.53932 0.45333,0.35219 0.91976,0.70208 1.45622,0.90641 0.53646,0.20432 1.13852,0.25229 1.68884,0.0889 0.55032,-0.16336 1.0287,-0.53206 1.36679,-0.996 0.33808,-0.46393 0.53806,-1.01164 0.7258,-1.55413 0.24738,-0.7148 0.30963,-1.40535 0.27289,-2.02144 -0.036,-0.60308 -0.16622,-1.1295 -0.29772,-1.54119 -0.13101,-0.41018 -0.28619,-0.77479 -0.40179,-1.03675 -0.12148,-0.27531 -0.21878,-0.48543 -0.27219,-0.61318 -0.0357,-0.0854 -0.0749,-0.16924 -0.11752,-0.25139 -0.21764,-0.4195 -0.50933,-0.99533 -0.84151,-1.55062 -0.34636,-0.57901 -0.78909,-1.22846 -1.37527,-1.84333 -0.22688,-0.23797 -0.48756,-0.44145 -0.7735,-0.60374 -2.16656,-1.22973 -4.11074,-2.70633 -6.47337,-4.3214 -2.30836,-1.57797 -4.88355,-3.18461 -7.88319,-4.20868 -0.0211,-0.007 -0.0422,-0.0142 -0.0635,-0.021 -1.01625,-0.32454 -2.06592,-0.57157 -2.889015,-0.7757 -0.90135,-0.22353 -1.62692,-0.41711 -2.29729,-0.66608 -0.02717,-0.0101 -0.05448,-0.0198 -0.0819,-0.0292 -1.567908,-0.53658 -3.283361,-1.15273 -5.040579,-1.64016 -1.809269,-0.50186 -3.736014,-0.88999 -5.775464,-0.95542 -3.284293,-0.16995 -6.419392,0.36789 -9.295285,1.26812 -2.962874,0.92745 -5.722854,2.26219 -8.188467,3.69934 -1.266702,0.70489 -2.882237,1.52615 -4.343491,2.48079 -0.78299,0.51153 -1.568062,1.08852 -2.312092,1.75958 -0.759631,0.68512 -1.472368,1.46463 -2.09605,2.36642 -0.540951,0.76961 -0.877234,1.26721 -1.278822,1.74013 -0.387782,0.45667 -0.69057,0.704 -0.954689,0.85242 -2.287391,1.29272 -3.764823,3.37068 -4.380963,5.53022 -0.0135,0.0431 -0.02565,0.0818 -0.0363,0.11578 a 3.3606714,3.3606714 90 0 0 6.413582,2.01058 c 0.01434,-0.0458 0.0314,-0.10017 0.05083,-0.16215 0.01099,-0.0351 0.0214,-0.0703 0.03124,-0.10569 0.156404,-0.56296 0.576264,-1.16856 1.221515,-1.53323 1.16347,-0.65381 2.058969,-1.51042 2.778156,-2.35735 0.656379,-0.77297 1.221057,-1.60938 1.661934,-2.23646 0.0058,-0.008 0.01155,-0.0165 0.01727,-0.0248 0.289854,-0.42026 0.644138,-0.81708 1.07393,-1.20472 0.423461,-0.38193 0.914986,-0.75036 1.486574,-1.12378 1.210155,-0.7906 2.366774,-1.36001 3.968021,-2.25255 0.01947,-0.0108 0.03883,-0.0219 0.05807,-0.0331 2.166758,-1.2649 4.469072,-2.36557 6.83762,-3.10698 2.292094,-0.71748 4.62969,-1.09365 6.967683,-0.96874 0.02615,0.001 0.05233,0.002 0.07851,0.003 1.336906,0.0401 2.714128,0.29738 4.220118,0.71512 1.497937,0.41551 2.935573,0.93181 4.621793,1.50926 1.04094,0.38344 2.071636,0.64869 2.97667,0.87313 0.928643,0.2303 1.69163,0.41051 2.430375,0.64464 2.10117,0.72242 4.05937,1.90188 6.23007,3.38575 1.86703,1.27629 4.10836,2.94358 6.41209,4.30687 0.0712,0.10015 0.14912,0.21962 0.23506,0.36328 0.18581,0.31062 0.35266,0.63438 0.5835,1.07994 0.10484,0.24381 0.19695,0.44059 0.26655,0.59831 0.0868,0.1967 0.12735,0.3025 0.14837,0.36828 0.0169,0.0528 -0.001,0.0236 -0.009,-0.10372 -0.008,-0.13544 0.004,-0.34288 0.0848,-0.57689 0.18774,-0.54249 0.38772,-1.0902 0.7258,-1.55413 0.33809,-0.46394 0.81647,-0.83264 1.36679,-0.996 0.55032,-0.16336 1.15238,-0.11539 1.68884,0.0889 0.53646,0.20433 1.00289,0.55422 1.45622,0.90641 -0.21276,-0.16529 -0.453,-0.39983 -0.81285,-0.78977 -0.29419,-0.3188 -0.78564,-0.87588 -1.26789,-1.34761 -0.75439,-0.75736 -1.7571,-1.82201 -2.71646,-2.71647 -1.01641,-0.94766 -2.2144,-1.93396 -3.65034,-2.724 -0.0406,-0.0223 -0.0816,-0.0438 -0.12311,-0.0644 -2.53627,-1.26177 -5.17582,-1.89782 -7.71687,-2.24373 -2.48244,-0.33793 -4.985825,-0.41105 -7.243648,-0.47736 -1.021797,-0.0766 -1.999609,-0.0504 -2.834058,-0.019 -0.914627,0.0345 -1.617164,0.0723 -2.335255,0.0582 -0.03959,-7.7e-4 -0.07919,-8.5e-4 -0.118779,-2.2e-4 -0.07762,0.001 -0.181384,-0.0124 -0.324132,-0.0692 -0.149444,-0.0594 -0.337444,-0.16522 -0.550863,-0.33752 -0.711529,-0.57488 -1.482558,-0.9119 -2.227949,-1.08936 -0.718237,-0.17099 -1.378995,-0.18603 -1.886472,-0.16641 -0.489637,0.0189 -0.974381,0.079 -1.262403,0.11193 -0.349172,0.0399 -0.512229,0.0535 -0.626993,0.054 -1.413388,0.009 -2.950892,-0.0929 -4.604743,-0.14336 -1.635547,-0.0499 -3.43631,-0.0467 -5.291932,0.23836 -2.090572,0.27584 -3.985192,0.95608 -5.685807,1.793 -1.704258,0.8387 -3.262169,1.86128 -4.642693,2.84439 -1.560326,1.07694 -2.721359,2.44114 -3.606294,3.76837 -0.07735,0.11601 -0.14741,0.23673 -0.209764,0.36144 0.06597,-0.13194 0.15846,-0.27001 0.277769,-0.39955 0.11822,-0.12836 0.236779,-0.22021 0.332479,-0.28186 0.163433,-0.10529 0.256535,-0.11624 0.06126,-0.0556 -0.04374,0.0136 -0.61917,0.17595 -0.988128,0.31269 -0.241895,0.0897 -0.529704,0.2106 -0.834428,0.37759 -0.242879,0.1331 -0.497965,0.2962 -0.752271,0.49782 -0.755478,0.51292 -1.685796,1.16809 -2.533412,1.97683 -0.46518,0.44385 -0.928189,0.95431 -1.344383,1.5435 -0.422488,0.59811 -0.794025,1.27364 -1.069699,2.03442 -0.0061,0.017 -0.01216,0.034 -0.01803,0.051 0.0051,-0.0148 -0.0086,0.024 -0.02782,0.0708 -0.02008,0.049 -0.04467,0.10529 -0.07115,0.16124 -0.02718,0.0574 -0.05,0.10102 -0.06557,0.1286 -0.01836,0.0325 -0.01141,0.0158 0.02496,-0.0335 0.02241,-0.0304 0.151092,-0.20559 0.398179,-0.40343 0.1314,-0.10521 0.345543,-0.25669 0.64247,-0.38768 0.303615,-0.13394 0.73366,-0.26338 1.258708,-0.26323 0.262949,7e-5 0.532796,0.0329 0.801602,0.10324 0.268987,0.0703 0.516478,0.17281 0.73878,0.29665 0.443584,0.24711 0.741734,0.55293 0.92727,0.79101 0.183679,0.23569 0.289082,0.44546 0.344791,0.57201 0.05774,0.13116 0.08621,0.22824 0.09745,0.26982 0.07061,0.26115 0.133678,0.52669 0.140075,0.79715 0.0064,0.27045 -0.04404,0.53867 -0.102231,0.80287 -0.01167,0.053 -0.02355,0.0686 -0.0077,0.0373 0.01826,-0.0361 0.06009,-0.10876 0.148664,-0.23098 0.164492,-0.22696 0.472369,-0.57522 0.85563,-1.0529 2.437954,-2.66719 4.749925,-4.89562 7.298949,-6.62282 2.607045,-1.76039 5.49623,-3.01716 8.494303,-3.97357 3.14899,-1.00456 6.451501,-1.68694 9.666698,-2.25361 0.07329,-0.0129 0.146136,-0.0283 0.218409,-0.046 0.659889,-0.1621 1.416096,-0.18924 2.370033,-0.13758 0.992679,0.0538 2.131895,0.19396 3.368947,0.24504 1.152857,0.0752 2.213035,-0.0464 3.12642,-0.23708 1.040805,-0.21729 1.977037,-0.54305 2.740235,-0.85185 0.01481,-0.006 0.02957,-0.0121 0.04429,-0.0183 0.15744,-0.0663 0.32943,-0.11101 0.522437,-0.13611 0.171072,-0.0222 0.358776,-0.029 0.562785,-0.0203 0.05454,0.002 0.110375,0.006 0.167515,0.0103 0.608592,0.0486 1.291802,0.21812 2.020693,0.45544 3.840199,1.30697 6.961769,3.30992 9.276429,5.25142 1.38653,1.23423 2.58297,2.83631 3.64501,4.27883 1.68712,2.29155 2.78777,3.79252 4.349,5.34853 a 3.3606714,3.3606714 90 0 0 4.74474,-4.76066 z"
       id="path-1"
       style="fill:#331905;fill-rule:nonzero;stroke:none;stroke-width:0.894159px;stroke-linecap:butt;stroke-linejoin:miter;stroke-opacity:1;fill-opacity:1"
       inkscape:original-d="m 118.92074,125.13118 c -2.37261,-2.35371 -4.41509,-5.80352 -6.78928,-8.44762 -3.36626,-3.74898 -11.9004,-8.34702 -15.874014,-7.85672 -1.290052,0.15918 -2.540672,0.87316 -3.826742,1.11017 -2.687635,0.49528 -5.454911,-0.48434 -8.169339,-0.004 -7.53004,1.3353 -15.963519,3.07916 -22.807482,8.87024 -1.431856,1.21157 -7.698085,6.9691 -7.005024,8.22587 0.594221,1.07751 1.324413,-1.90821 2.032593,-2.75372 1.114166,-1.33025 2.395063,-2.21919 3.669712,-3.00478 0.525553,-0.32394 1.13684,-0.15272 1.641191,-0.56568 0.74407,-0.60926 1.305091,-1.75925 2.028522,-2.43914 1.678147,-1.5771 4.014153,-2.94238 5.859326,-3.86388 4.153059,-2.07407 8.64464,-1.55229 12.907404,-1.38649 1.209372,0.0471 2.451151,-0.21942 3.633078,-0.17344 0.72401,0.0281 1.988274,1.17167 2.524024,1.35718 1.716328,0.59422 3.687688,0.14342 5.443512,0.21171 4.936782,0.19202 10.283909,0.0771 15.035959,2.47333 2.7368,1.38003 7.75914,7.45558 7.89427,7.2316 0.66605,-1.10412 -1.86205,-5.1934 -2.28966,-5.43985 -5.51063,-3.17601 -9.71995,-7.52537 -15.680352,-8.79344 -2.711764,-0.57693 -5.439466,-1.74425 -8.136773,-2.51974 -7.257603,-2.08654 -13.841719,-0.37289 -20.742334,3.59977 -2.240985,1.29015 -4.732293,2.35356 -6.774721,4.45779 -0.917075,0.94484 -1.706442,2.34552 -2.585078,3.36174 -1.665149,1.92589 -3.533406,1.6538 -4.605461,5.17166"
       inkscape:path-effect="#path-effect951;#path-effect953" />
    <path
       d="m 129.80932,66.882127 c -1.44372,-1.804318 -2.50668,-3.545586 -4.5785,-7.05946 -1.2191,-2.067619 -3.14285,-5.374084 -5.56066,-8.209632 -0.0353,-0.04144 -0.0714,-0.08227 -0.1081,-0.122485 -3.37028,-3.690019 -8.11885,-7.655947 -14.32447,-10.556953 -0.0419,-0.01959 -0.0841,-0.03858 -0.12657,-0.05695 -1.10375,-0.477537 -2.86408,-1.214673 -4.78606,-1.569713 -0.19523,-0.03606 -0.395448,-0.06894 -0.600209,-0.0977 -0.753472,-0.105837 -1.624475,-0.163982 -2.56814,-0.09545 -1.087588,0.07898 -2.295536,0.328235 -3.530713,0.883485 l 0.0186,-0.0083 c -0.907114,0.403147 -1.580788,0.718801 -2.223174,0.934086 -0.271932,0.09113 -0.491272,0.147188 -0.671434,0.178307 -0.167046,0.02885 -0.291621,0.03474 -0.388119,0.03014 -0.07668,-0.0037 -0.153441,-0.0055 -0.23021,-0.0055 -0.50142,1.68e-4 -1.060546,-0.03886 -1.777084,-0.110709 -0.672739,-0.06745 -1.445785,-0.162514 -2.328664,-0.238412 -0.834657,-0.07175 -1.8221,-0.128682 -2.873611,-0.0828 -0.977723,0.04266 -2.058015,0.175425 -3.191778,0.489088 -3.945012,0.860111 -8.238945,1.950826 -12.450982,3.515218 -4.061619,1.508527 -8.223202,3.519581 -12.095394,6.355512 -2.629566,1.883646 -4.958098,4.066261 -7.098439,6.405416 -2.064993,2.256807 -3.937963,4.640378 -5.732385,7.018188 -0.04916,0.06514 -0.09664,0.131518 -0.142405,0.199079 -0.313465,0.462752 -1.195039,1.674141 -1.762966,2.605764 -0.330862,0.542744 -0.678967,1.173563 -0.984084,1.881442 -0.302859,0.702641 -0.571135,1.498763 -0.739346,2.383945 -0.05179,0.272559 -0.0978,0.547454 -0.101819,0.824861 -0.004,0.277408 0.034,0.553521 0.07787,0.827467 0.04233,0.264334 0.102849,0.563009 0.193505,0.877675 0.08832,0.306574 0.224152,0.694828 0.440944,1.109585 0.21256,0.406656 0.560247,0.948895 1.118345,1.456841 0.585224,0.532632 1.381426,1.004787 2.369209,1.207741 0.975151,0.200358 1.858253,0.08141 2.548258,-0.140493 0.660287,-0.212353 1.161148,-0.52201 1.495571,-0.768076 0.340567,-0.250585 0.604514,-0.506217 0.795393,-0.711512 0.194662,-0.209365 0.355229,-0.411722 0.483485,-0.586891 0.251306,-0.34323 0.450618,-0.681007 0.601874,-0.96341 0.154767,-0.288961 0.2899,-0.577543 0.40459,-0.849174 0.113761,-0.269435 0.220166,-0.55242 0.311268,-0.836338 0.04575,-0.14257 0.0917,-0.298038 0.1339,-0.462196 0.01024,-0.03983 0.02075,-0.08207 0.03132,-0.126511 0.161747,-0.498885 0.325532,-0.909636 0.499207,-1.251106 0.188035,-0.369703 0.370604,-0.624073 0.543569,-0.806114 0.05748,-0.0605 0.11337,-0.122484 0.167613,-0.185899 0.655146,-0.765932 1.394184,-1.479523 2.200101,-2.115014 0.385149,-0.114439 0.757317,-0.25783 1.114803,-0.427776 0.832941,-0.395975 1.524992,-0.906509 2.091469,-1.441812 0.558688,-0.527942 1.004926,-1.088818 1.361208,-1.61468 0.336986,-0.497381 0.612817,-0.992167 0.839098,-1.445689 0.412225,-0.768669 1.030876,-1.540511 1.881263,-2.352859 0.884367,-0.844805 1.914629,-1.642289 3.141793,-2.558236 0.0033,-0.0025 0.0066,-0.0049 0.0099,-0.0074 1.046286,-0.785136 2.098435,-1.444619 3.15127,-1.938729 1.041317,-0.488705 2.055372,-0.802664 3.049704,-0.931903 0.05122,-0.0067 0.102321,-0.01414 0.153294,-0.02245 1.392091,-0.226908 2.891734,-0.249523 4.661223,-0.180967 1.726749,0.0669 3.637415,0.22577 5.72798,0.250544 0.825991,0.0183 1.578562,-0.08204 2.041117,-0.14764 0.597846,-0.08478 0.790347,-0.120618 1.044035,-0.141885 0.200148,-0.01678 0.100755,0.01357 -0.142554,-0.03903 -0.135171,-0.02922 -0.309803,-0.0826 -0.502084,-0.176765 -0.194869,-0.09543 -0.370853,-0.214717 -0.519166,-0.346133 -0.0046,-0.0041 -0.0092,-0.0082 -0.01381,-0.01229 0.535414,0.478114 1.431126,1.278899 2.520862,1.92353 0.574821,0.340035 1.248699,0.667109 2.028,0.908168 0.733834,0.226996 1.534856,0.368667 2.392718,0.379282 1.382836,0.07136 2.735271,-0.02609 3.674734,-0.07936 1.093246,-0.06199 1.811283,-0.08057 2.44974,-0.0079 0.123906,0.01411 0.24832,0.02338 0.37295,0.02778 2.802723,0.09905 5.356258,0.199133 7.802818,0.562299 2.42033,0.359274 4.54515,0.953411 6.41374,1.937797 0.0525,0.02768 0.1056,0.05438 0.15914,0.08009 0.3914,0.187953 0.78497,0.435494 1.19432,0.754648 0.41367,0.322519 0.83612,0.712346 1.2847,1.179732 0.96477,1.005227 1.77248,2.056559 2.92529,3.446522 1.33067,1.637177 2.68868,3.640771 4.43529,5.693248 0.49637,0.583287 1.00895,1.166765 1.64722,1.590111 0.63826,0.423345 1.3998,0.67345 2.16534,0.650071 0.76555,-0.02338 1.5104,-0.319488 2.12164,-0.780992 0.61124,-0.461504 1.08727,-1.075174 1.54712,-1.687663 0.42568,-0.566992 0.7084,-1.158609 0.89086,-1.715717 0.18046,-0.55099 0.26317,-1.068012 0.29718,-1.509869 0.0659,-0.856109 -0.0383,-1.615118 -0.13642,-2.135453 -0.1021,-0.541458 -0.23998,-1.034837 -0.34029,-1.378192 -0.10646,-0.364403 -0.19252,-0.643145 -0.22317,-0.756011 -0.0349,-0.128367 -0.0751,-0.255232 -0.12046,-0.380255 -0.33815,-0.930915 -0.73451,-1.996596 -1.22016,-3.06469 -0.49575,-1.090289 -1.1117,-2.245719 -1.92037,-3.361673 -0.30781,-0.424768 -0.6835,-0.796308 -1.11166,-1.099382 -2.52836,-1.789717 -4.79382,-3.886402 -7.49911,-6.224936 -2.64485,-2.286277 -5.60443,-4.701184 -9.11419,-6.557107 -1.69747,-0.929034 -3.43431,-1.477747 -4.74334,-1.878038 -1.49616,-0.457514 -2.455787,-0.731836 -3.377411,-1.145538 -0.04454,-0.01999 -0.08938,-0.0393 -0.13451,-0.05793 -1.865111,-0.769633 -4.15352,-1.810111 -6.376274,-2.616837 -2.348636,-0.852413 -4.942354,-1.574181 -7.775849,-1.751518 -3.93319,-0.327727 -7.675672,0.297841 -11.056438,1.397162 -3.500905,1.138387 -6.715553,2.817036 -9.522794,4.626743 -0.02314,0.01492 -0.04616,0.03004 -0.06904,0.04535 -2.510965,1.680677 -4.920847,3.343858 -7.186971,4.937985 -0.01426,0.01003 -0.02846,0.02013 -0.0426,0.03032 -3.184886,2.292793 -5.754659,5.194624 -7.449573,8.516097 -0.468556,0.873442 -0.872855,1.541842 -1.284828,2.093208 -0.441536,0.590932 -0.838031,0.971698 -1.204551,1.231541 -0.01617,0.01146 -0.03226,0.02302 -0.04828,0.03468 -1.654155,1.203817 -2.800549,2.670544 -3.590562,4.055754 -0.906773,1.589938 -1.417923,3.198864 -1.715022,4.537321 a 4.7918132,4.7918132 90 0 0 9.355908,2.076744 c 0.151581,-0.682885 0.377066,-1.328026 0.684006,-1.866215 0.256067,-0.448989 0.538563,-0.784305 0.889242,-1.043256 1.327294,-0.946973 2.403653,-2.081876 3.306519,-3.290232 0.830422,-1.111399 1.500511,-2.266418 2.081063,-3.351976 0.01651,-0.03088 0.03269,-0.06193 0.04852,-0.09316 0.933846,-1.842167 2.439149,-3.615357 4.506808,-5.108274 2.184048,-1.536391 4.520048,-3.148578 6.945929,-4.77277 2.289272,-1.472604 4.74263,-2.727452 7.259792,-3.545956 2.444362,-0.794832 4.908097,-1.165576 7.334997,-0.957328 0.04139,0.0036 0.08282,0.0066 0.124291,0.009 1.597278,0.09531 3.251633,0.51208 5.139845,1.197386 1.966451,0.713704 3.614099,1.485029 5.926891,2.441053 1.58765,0.704628 3.238329,1.171399 4.428387,1.53531 1.30282,0.398392 2.20538,0.712687 2.96102,1.129158 0.0261,0.01439 0.0524,0.02854 0.0787,0.04244 2.50722,1.321451 4.794,3.137083 7.35295,5.349111 2.18148,1.885737 4.73905,4.228843 7.4843,6.257675 0.19755,0.33222 0.39261,0.71063 0.59005,1.144864 0.29873,0.656988 0.57101,1.368261 0.87418,2.198671 0.0836,0.294009 0.15758,0.527645 0.21463,0.72292 0.075,0.256808 0.10781,0.3927 0.12173,0.466518 0.01,0.05125 -0.0284,-0.02369 -0.001,-0.375828 0.013,-0.169447 0.049,-0.427286 0.1506,-0.737542 0.1038,-0.316944 0.27589,-0.6867 0.5527,-1.055395 0.45985,-0.612489 0.93588,-1.226159 1.54712,-1.687663 0.61124,-0.461504 1.35609,-0.757613 2.12164,-0.780992 0.76554,-0.02338 1.52708,0.226726 2.16534,0.650071 0.63827,0.423346 1.15085,1.006824 1.64721,1.590111 -1.3047,-1.533177 -2.62584,-3.473757 -4.3147,-5.548741 -0.01,-0.01174 -0.0192,-0.02344 -0.0288,-0.03509 -0.88507,-1.066619 -2.11294,-2.638662 -3.40129,-3.981035 -0.67842,-0.706868 -1.44231,-1.427914 -2.30645,-2.101643 -0.84356,-0.657683 -1.78935,-1.275613 -2.85494,-1.795458 -3.09476,-1.616296 -6.31907,-2.441862 -9.3977,-2.898852 -2.99849,-0.445095 -6.01683,-0.559143 -8.702148,-0.654203 -1.462155,-0.146679 -2.83721,-0.07526 -3.8731,-0.01652 -1.200214,0.06806 -1.959509,0.118025 -2.701994,0.07316 -0.112741,-0.0068 -0.22569,-0.0096 -0.338631,-0.0085 0.141449,-0.0015 0.264459,0.02224 0.34783,0.04803 0.07463,0.02309 0.08172,0.03588 0.01929,-0.001 -0.185353,-0.109645 -0.447051,-0.314525 -1.016917,-0.823402 -0.0046,-0.0041 -0.0092,-0.0082 -0.01381,-0.01229 -0.499784,-0.442843 -1.044378,-0.805252 -1.621615,-1.08793 -0.574829,-0.281498 -1.145798,-0.466299 -1.687703,-0.583456 -1.057387,-0.2286 -2.012799,-0.200084 -2.683205,-0.143882 -0.617529,0.05177 -1.312804,0.164151 -1.589008,0.20332 -0.358879,0.05089 -0.544061,0.05338 -0.478478,0.05517 l -0.07775,-0.0015 c -1.648562,-0.01843 -3.485601,-0.166429 -5.496225,-0.244327 -1.975887,-0.07655 -4.194715,-0.08127 -6.499038,0.286514 -2.112194,0.283967 -4.055904,0.927333 -5.807857,1.74955 -1.778928,0.834877 -3.392011,1.869009 -4.826707,2.945193 -1.239339,0.925088 -2.682206,2.022766 -4.024446,3.304963 -1.372282,1.310896 -2.731538,2.898286 -3.765662,4.863514 -0.02,0.03801 -0.03949,0.07629 -0.05846,0.114822 -0.0888,0.180358 -0.160178,0.300369 -0.210466,0.374592 -0.05096,0.07521 -0.05837,0.07087 -0.0094,0.02458 0.05375,-0.0508 0.177173,-0.153369 0.376108,-0.247942 0.209289,-0.09949 0.435759,-0.158163 0.647497,-0.173684 l -2.385412,0.844868 c -1.752542,1.218684 -3.321826,2.648488 -4.669836,4.209879 -0.889024,0.957282 -1.546539,1.982659 -2.045877,2.96443 -0.522141,1.026603 -0.892063,2.047291 -1.171723,2.950303 -0.06519,0.210499 -0.115789,0.425266 -0.151422,0.642729 0.02075,-0.126655 0.04247,-0.215806 0.05298,-0.256691 0.0117,-0.04551 0.02024,-0.07257 0.02261,-0.07994 0.0063,-0.01957 -0.0031,0.009 -0.01481,0.03664 -0.01173,0.02777 -0.02669,0.0574 -0.02386,0.05211 0.0029,-0.0053 0.01892,-0.04381 0.113781,-0.173372 0.04419,-0.06036 0.120126,-0.15857 0.230438,-0.277214 0.106297,-0.114324 0.285982,-0.292529 0.543473,-0.481988 0.251099,-0.184756 0.669856,-0.449523 1.250062,-0.636121 0.609768,-0.196099 1.414701,-0.308508 2.314638,-0.123604 0.912335,0.187452 1.636085,0.62198 2.152692,1.092162 0.489267,0.4453 0.772003,0.899934 0.924307,1.191312 0.15637,0.29916 0.236523,0.54401 0.274759,0.676729 0.04041,0.140247 0.05631,0.233907 0.06048,0.25998 0.04387,0.273945 0.08189,0.550058 0.07787,0.827466 -0.004,0.277407 -0.05002,0.552302 -0.101819,0.824861 0.016,-0.0842 0.04948,-0.204211 0.125095,-0.379648 0.07859,-0.182321 0.1946,-0.404979 0.366192,-0.686457 0.331951,-0.54453 0.851654,-1.246225 1.443455,-2.114769 1.70648,-2.258585 3.345423,-4.329564 5.08176,-6.227187 1.817915,-1.986779 3.660244,-3.690341 5.626361,-5.09645 0.01558,-0.01114 0.0311,-0.02238 0.04655,-0.03372 2.982227,-2.187309 6.308052,-3.824091 9.787212,-5.116286 3.658087,-1.35865 7.511137,-2.344522 11.294728,-3.16578 0.11035,-0.02395 0.219822,-0.0518 0.328204,-0.08348 0.307638,-0.08994 0.658695,-0.14522 1.100855,-0.164513 0.466823,-0.02037 0.99545,0.0017 1.634998,0.05669 0.652315,0.05608 1.388134,0.145075 2.19338,0.225815 0.801747,0.08039 1.692825,0.153336 2.629795,0.15826 0.853435,0.03096 1.643311,-0.04168 2.352977,-0.164262 0.778153,-0.134411 1.481748,-0.332833 2.085523,-0.535178 1.199429,-0.401969 2.458792,-0.99167 3.070012,-1.263313 0.0062,-0.0028 0.01241,-0.0055 0.01861,-0.0083 0.06688,-0.03007 0.154199,-0.05582 0.295521,-0.06608 0.13238,-0.0096 0.310022,-0.005 0.540886,0.02746 0.06096,0.0086 0.125063,0.01898 0.192392,0.03142 0.747269,0.138041 1.620082,0.466669 2.657322,0.91353 4.77992,2.234445 8.52028,5.340304 11.18827,8.247749 1.76008,2.07923 3.25557,4.609763 4.54568,6.79781 2.0577,3.489919 3.43002,5.778696 5.35094,8.179424 a 4.7918132,4.7918132 90 0 0 7.48304,-5.9875 z"
       id="path-1-6"
       style="fill:#331905;fill-rule:nonzero;stroke:none;stroke-width:1.27493px;stroke-linecap:butt;stroke-linejoin:miter;stroke-opacity:1;fill-opacity:1"
       inkscape:original-d="m 126.0678,69.875877 c -3.03017,-3.74677 -5.63873,-9.238399 -8.67094,-13.447458 -4.29922,-5.967846 -15.19859,-13.287288 -20.2735,-12.506797 -1.647583,0.253393 -3.244826,1.389964 -4.887325,1.767221 -3.432523,0.788437 -6.96675,-0.77099 -10.433481,-0.0056 -9.616999,2.125622 -20.387826,4.901593 -29.1286,14.1202 -1.828696,1.928664 -9.831616,11.093837 -8.946473,13.094451 0.75891,1.715249 1.691477,-3.037609 2.595928,-4.383546 1.42296,-2.117564 3.058858,-3.532641 4.686777,-4.783202 0.671211,-0.515647 1.451915,-0.243102 2.096049,-0.900477 0.95029,-0.969861 1.666798,-2.800485 2.590728,-3.882761 2.143247,-2.510528 5.126679,-4.683868 7.483245,-6.150767 5.304082,-3.301647 11.040511,-2.471039 16.484703,-2.207114 1.544552,0.07497 3.130492,-0.349275 4.639989,-0.276088 0.924671,0.0448 2.539324,1.865148 3.223554,2.160447 2.19201,0.945926 4.709738,0.228314 6.952191,0.337018 6.305025,0.305663 13.134105,0.12276 19.203185,3.937205 3.4953,2.196806 9.90961,11.868239 10.08218,11.511692 0.85064,-1.757587 -2.37812,-8.26717 -2.92425,-8.659498 -7.03791,-5.055747 -12.41385,-11.979338 -20.02617,-13.997928 -3.463329,-0.918394 -6.947018,-2.776626 -10.39189,-4.011068 -9.269048,-3.321493 -17.677961,-0.593615 -26.491086,5.730328 -2.862077,2.053729 -6.043854,3.746525 -8.652342,7.096189 -1.171244,1.504045 -2.179384,3.733743 -3.301535,5.351422 -2.126647,3.065758 -4.512692,2.632629 -5.881869,8.232571"
       inkscape:path-effect="#path-effect982;#path-effect984" />
  </g>
</svg>
