<?xml version="1.0" encoding="UTF-8" standalone="no"?>
<svg
   xmlns:dc="http://purl.org/dc/elements/1.1/"
   xmlns:cc="http://creativecommons.org/ns#"
   xmlns:rdf="http://www.w3.org/1999/02/22-rdf-syntax-ns#"
   xmlns:svg="http://www.w3.org/2000/svg"
   xmlns="http://www.w3.org/2000/svg"
   xmlns:xlink="http://www.w3.org/1999/xlink"
   xmlns:sodipodi="http://sodipodi.sourceforge.net/DTD/sodipodi-0.dtd"
   xmlns:inkscape="http://www.inkscape.org/namespaces/inkscape"
   width="210mm"
   height="297mm"
   viewBox="0 0 210 297"
   version="1.1"
   id="svg8"
   inkscape:version="1.0.2-2 (e86c870879, 2021-01-15)"
   sodipodi:docname="weatherman_speechbox.svg">
  <defs
     id="defs2">
    <inkscape:path-effect
       effect="interpolate_points"
       id="path-effect7512"
       is_visible="true"
       lpeversion="1"
       interpolator_type="CentripetalCatmullRom" />
    <inkscape:path-effect
       effect="fillet_chamfer"
       id="path-effect7510"
       is_visible="true"
       lpeversion="1"
       satellites_param="F,0,0,1,0,0.79375,0,1 @ F,0,0,1,0,0.79375,0,1 @ F,0,0,1,0,0.79375,0,1 @ F,0,0,1,0,0.79375,0,1"
       unit="px"
       method="auto"
       mode="F"
       radius="3"
       chamfer_steps="1"
       flexible="false"
       use_knot_distance="true"
       apply_no_radius="true"
       apply_with_radius="true"
       only_selected="false"
       hide_knots="false" />
    <symbol
       id="SquaredBalloon"
       style="stroke-linejoin:miter;stroke-miterlimit:10">
      <title
         id="title899">Squared Balloon</title>
      <rect
         x="21.166666"
         y="17.197916"
         width="66.145836"
         height="37.041668"
         rx="4.4979167"
         style="stroke:none;stroke-width:0.264583"
         id="rect901" />
      <path
         d="m 33.3375,52.652083 6.614583,11.377084 7.9375,-11.377084"
         style="stroke:none;stroke-width:0.264583"
         id="path903" />
      <rect
         x="19.84375"
         y="15.875"
         width="66.145836"
         height="37.041668"
         rx="3.96875"
         style="fill:#eeeeee;stroke-width:0.926042"
         id="rect905" />
      <path
         d="m 31.75,51.59375 6.614583,11.377083 7.9375,-11.377083"
         style="fill:#eeeeee;stroke-width:0.926042"
         id="path907" />
      <rect
         x="21.166666"
         y="17.197916"
         width="62.177082"
         height="33.072918"
         rx="2.6458333"
         style="fill:#ffffff;stroke:none;stroke-width:0.264583"
         id="rect909" />
      <path
         d="M 31.220833,47.625 37.835417,59.002083 45.772917,47.625"
         style="fill:#ffffff;stroke:none;stroke-width:0.264583"
         id="path911" />
    </symbol>
    <filter
       inkscape:collect="always"
       style="color-interpolation-filters:sRGB"
       id="filter1124"
       x="-2.3493977e-05"
       width="1.000047"
       y="-4.1489364e-05"
       height="1.000083">
      <feGaussianBlur
         inkscape:collect="always"
         stdDeviation="0.00086862599"
         id="feGaussianBlur1126" />
    </filter>
    <symbol
       id="Terminal">
      <title
         id="title1218">Terminal/Interrupt</title>
      <desc
         id="desc1220">A terminal point in a flowchart: start, stop, halt, etc.</desc>
      <path
         d="m 9.2604167,25.135417 a 5.291667,5.291667 0 0 1 0,-10.583334 H 30.427083 a 5.291667,5.291667 0 0 1 0,10.583334 z"
         style="stroke-width:0.529167"
         id="path1222" />
    </symbol>
  </defs>
  <sodipodi:namedview
     id="base"
     pagecolor="#ffffff"
     bordercolor="#666666"
     borderopacity="1.0"
     inkscape:pageopacity="0.0"
     inkscape:pageshadow="2"
     inkscape:zoom="1.4"
     inkscape:cx="322.58426"
     inkscape:cy="738.16541"
     inkscape:document-units="mm"
     inkscape:current-layer="layer1"
     inkscape:document-rotation="0"
     showgrid="false"
     inkscape:window-width="1920"
     inkscape:window-height="1017"
     inkscape:window-x="1912"
     inkscape:window-y="-8"
     inkscape:window-maximized="1" />
  <metadata
     id="metadata5">
    <rdf:RDF>
      <cc:Work
         rdf:about="">
        <dc:format>image/svg+xml</dc:format>
        <dc:type
           rdf:resource="http://purl.org/dc/dcmitype/StillImage" />
        <dc:title></dc:title>
      </cc:Work>
    </rdf:RDF>
  </metadata>
  <g
     inkscape:label="Calque 1"
     inkscape:groupmode="layer"
     id="layer1">
    <use
       xlink:href="#SquaredBalloon"
       style="fill:#000000;stroke:#000000"
       id="use1088"
       x="0"
       y="0"
       width="100%"
       height="100%"
       transform="matrix(0.99996457,-0.00937628,-0.0084178,-1.1138245,174.88811,188.04249)" />
    <rect
       style="fill:#000000;fill-rule:evenodd;stroke-width:0.265;stroke-miterlimit:4;stroke-dasharray:none;opacity:1;filter:url(#filter1124)"
       id="rect1112"
       width="88.733482"
       height="50.24667"
       x="35.01231"
       y="33.675961" />
    <path
       style="fill:#000000;stroke:#000000;stroke-width:0.227839px;stroke-linecap:butt;stroke-linejoin:miter;stroke-opacity:1"
       d="M 55.361349,38.778849 C 41.468829,25.986736 37.369398,24.823816 37.369398,24.823816 c 0,0 7.74337,10.466275 6.604639,14.187616 -1.138729,3.721342 11.387312,-0.232583 11.387312,-0.232583 z"
       id="path1114" />
    <use
       xlink:href="#Terminal"
       style="fill:#000000;stroke:#000000"
       id="use6771"
       x="0"
       y="0"
       width="100%"
       height="100%"
       transform="matrix(2.9052032,0,0,5.4636263,119.97024,-40.502029)" />
    <path
       style="fill:#000000;stroke:#000000;stroke-width:0.227839px;stroke-linecap:butt;stroke-linejoin:miter;stroke-opacity:1"
       d="M 161.10652,40.584281 C 147.214,27.792168 139.3728,27.431057 139.3728,27.431057 c 0,0 7.74337,10.466275 6.60464,14.187616 -1.13873,3.721342 15.12908,-1.034392 15.12908,-1.034392 z"
       id="path1114-3"
       sodipodi:nodetypes="ccsc" />
    <g
       id="use6771-4"
       style="fill:#000000;stroke:#000000"
       transform="matrix(2.4761397,0,0,10.352945,192.71599,30.416758)">
      <title
         id="title6835">Terminal/Interrupt</title>
      <desc
         id="desc6837">A terminal point in a flowchart: start, stop, halt, etc.</desc>
      <path
         d="m 9.2604167,25.135417 a 5.291667,5.291667 0 0 1 0,-10.583334 H 30.427083 a 5.291667,5.291667 0 0 1 0,10.583334 z"
         style="fill:#000000;stroke:#000000;stroke-width:0.529167"
         id="path6839" />
    </g>
    <path
       id="path1114-3-8"
       style="fill:none;stroke:#000000;stroke-width:4.0251969;stroke-linecap:butt;stroke-linejoin:miter;stroke-opacity:1;stroke-miterlimit:4;stroke-dasharray:none"
       d="M 162.81836 506.66016 C 162.81836 506.66016 186.94891 539.27642 188.16211 555.80469 C 177.49887 556.21971 168.65341 556.47852 162.46289 556.47852 C 161.9629 557.71943 160.33101 558.72218 159.46289 563.92383 C 153.74729 598.17126 153.74729 986.11393 159.46289 1020.3613 C 160.33101 1025.563 160.29481 1025.5777 162.46289 1027.8066 C 181.56583 1047.4454 472.72126 1047.4454 491.82422 1027.8066 C 493.99229 1025.5777 493.95608 1025.563 494.82422 1020.3613 C 500.53981 986.11393 500.53981 598.17126 494.82422 563.92383 C 493.95608 558.72218 493.99229 558.70746 491.82422 556.47852 C 477.8441 542.10628 337.51921 548.76148 241.64453 553.36914 C 191.21697 507.99593 162.81836 506.66016 162.81836 506.66016 z "
       transform="scale(0.26458333)" />
    <path
       style="opacity:1;fill:#ffffff;fill-rule:evenodd;stroke:#000000;stroke-width:2.87514;stroke-miterlimit:4;stroke-dasharray:none"
       d="m 289.72712,1039.8836 c -76.6313,-2.0572 -122.65474,-7.5708 -126.72807,-15.1819 -0.87444,-1.6339 -1.97277,-10.8175 -2.53299,-21.1791 -2.15833,-39.92036 -3.39154,-182.37743 -2.50426,-289.28576 0.83614,-100.74682 2.14916,-145.23521 4.49886,-152.43234 l 0.83828,-2.56766 13.79628,-0.63225 13.79627,-0.63225 -0.45192,-2.93918 c -1.55032,-10.08286 -7.88541,-23.55219 -18.6658,-39.68621 -1.69203,-2.53229 -2.97933,-4.70124 -2.86069,-4.81989 0.54868,-0.54867 11.55734,3.75726 18.31404,7.16335 14.19016,7.15336 27.9623,16.53805 43.43777,29.5996 4.06141,3.4279 8.08332,6.7581 8.93758,7.40046 1.42185,1.06913 3.15415,1.08744 20.48179,0.21649 70.78054,-3.55772 117.75444,-4.84926 159.28571,-4.37954 39.94055,0.45172 52.66933,1.40128 64.31709,4.79801 8.20791,2.3936 8.7303,3.63767 9.95426,23.70591 1.68053,27.55447 2.2873,68.55687 2.65617,179.49121 0.54787,164.76692 -1.16223,257.47865 -4.90061,265.68355 -3.18517,6.9907 -35.69653,11.912 -97.02691,14.6871 -16.17882,0.7321 -88.69878,1.4185 -104.64285,0.9904 z"
       id="path7543"
       transform="scale(0.26458333)" />
  </g>
</svg>
